<svg width="400" height="400" viewBox="0 0 145 28" fill="none" xmlns="http://www.w3.org/2000/svg">
            <path d="M10.0141 14.084C9.26745 14.084 8.57678 13.9627 7.94212 13.72C7.31678 13.468 6.77078 13.118 6.30412 12.67C5.84678 12.222 5.48745 11.6947 5.22612 11.088C4.97412 10.4813 4.84812 9.81867 4.84812 9.1C4.84812 8.38133 4.97412 7.71867 5.22612 7.112C5.48745 6.50533 5.85145 5.978 6.31812 5.53C6.78478 5.082 7.33078 4.73667 7.95612 4.494C8.59078 4.242 9.28145 4.116 10.0281 4.116C10.7748 4.116 11.4561 4.23267 12.0721 4.466C12.6975 4.69933 13.2295 5.054 13.6681 5.53L13.0241 6.188C12.6135 5.77733 12.1608 5.48333 11.6661 5.306C11.1715 5.12867 10.6395 5.04 10.0701 5.04C9.46345 5.04 8.90345 5.14267 8.39012 5.348C7.88612 5.544 7.44278 5.82867 7.06012 6.202C6.68678 6.566 6.39278 6.99533 6.17812 7.49C5.97278 7.97533 5.87012 8.512 5.87012 9.1C5.87012 9.67867 5.97278 10.2153 6.17812 10.71C6.39278 11.2047 6.68678 11.6387 7.06012 12.012C7.44278 12.376 7.88612 12.6607 8.39012 12.866C8.90345 13.062 9.45878 13.16 10.0561 13.16C10.6161 13.16 11.1435 13.076 11.6381 12.908C12.1421 12.74 12.6041 12.4553 13.0241 12.054L13.6121 12.838C13.1455 13.2487 12.5995 13.5613 11.9741 13.776C11.3488 13.9813 10.6955 14.084 10.0141 14.084ZM12.6181 12.712V9.1H13.6121V12.838L12.6181 12.712ZM20.4922 14.084C19.2416 14.084 18.2569 13.7247 17.5382 13.006C16.8196 12.2873 16.4602 11.2233 16.4602 9.814V4.2H17.4962V9.772C17.4962 10.9293 17.7576 11.7833 18.2802 12.334C18.8029 12.8847 19.5402 13.16 20.4922 13.16C21.4536 13.16 22.1956 12.8847 22.7182 12.334C23.2409 11.7833 23.5022 10.9293 23.5022 9.772V4.2H24.5102V9.814C24.5102 11.2233 24.1509 12.2873 23.4322 13.006C22.7229 13.7247 21.7429 14.084 20.4922 14.084ZM30.3341 14.084C29.6061 14.084 28.9061 13.9673 28.2341 13.734C27.5715 13.4913 27.0581 13.1833 26.6941 12.81L27.1001 12.012C27.4455 12.348 27.9075 12.6327 28.4861 12.866C29.0741 13.09 29.6901 13.202 30.3341 13.202C30.9501 13.202 31.4495 13.1273 31.8321 12.978C32.2241 12.8193 32.5088 12.6093 32.6861 12.348C32.8728 12.0867 32.9661 11.7973 32.9661 11.48C32.9661 11.0973 32.8541 10.7893 32.6301 10.556C32.4155 10.3227 32.1308 10.1407 31.7761 10.01C31.4215 9.87 31.0295 9.74867 30.6001 9.646C30.1708 9.54333 29.7415 9.436 29.3121 9.324C28.8828 9.20267 28.4861 9.044 28.1221 8.848C27.7675 8.652 27.4781 8.39533 27.2541 8.078C27.0395 7.75133 26.9321 7.32667 26.9321 6.804C26.9321 6.31867 27.0581 5.87533 27.3101 5.474C27.5715 5.06333 27.9681 4.73667 28.5001 4.494C29.0321 4.242 29.7135 4.116 30.5441 4.116C31.0948 4.116 31.6408 4.19533 32.1821 4.354C32.7235 4.50333 33.1901 4.71333 33.5821 4.984L33.2321 5.81C32.8121 5.53 32.3641 5.32467 31.8881 5.194C31.4215 5.06333 30.9688 4.998 30.5301 4.998C29.9421 4.998 29.4568 5.07733 29.0741 5.236C28.6915 5.39467 28.4068 5.60933 28.2201 5.88C28.0428 6.14133 27.9541 6.44 27.9541 6.776C27.9541 7.15867 28.0615 7.46667 28.2761 7.7C28.5001 7.93333 28.7895 8.11533 29.1441 8.246C29.5081 8.37667 29.9048 8.49333 30.3341 8.596C30.7635 8.69867 31.1881 8.81067 31.6081 8.932C32.0375 9.05333 32.4295 9.212 32.7841 9.408C33.1481 9.59467 33.4375 9.84667 33.6521 10.164C33.8761 10.4813 33.9881 10.8967 33.9881 11.41C33.9881 11.886 33.8575 12.3293 33.5961 12.74C33.3348 13.1413 32.9335 13.468 32.3921 13.72C31.8601 13.9627 31.1741 14.084 30.3341 14.084ZM38.0127 14V5.096H34.5687V4.2H42.4927V5.096H39.0487V14H38.0127ZM42.0876 14L46.5676 4.2H47.5896L52.0696 14H50.9776L46.8616 4.802H47.2816L43.1656 14H42.0876ZM43.8516 11.382L44.1596 10.542H49.8576L50.1656 11.382H43.8516ZM55.9709 14L51.6309 4.2H52.7509L56.8109 13.426H56.1949L60.2829 4.2H61.3329L56.9929 14H55.9709ZM66.9571 14.084C66.2198 14.084 65.5338 13.9627 64.8991 13.72C64.2738 13.468 63.7278 13.118 63.2611 12.67C62.8038 12.2127 62.4445 11.6853 62.1831 11.088C61.9311 10.4813 61.8051 9.81867 61.8051 9.1C61.8051 8.38133 61.9311 7.72333 62.1831 7.126C62.4445 6.51933 62.8038 5.992 63.2611 5.544C63.7278 5.08667 64.2738 4.73667 64.8991 4.494C65.5245 4.242 66.2105 4.116 66.9571 4.116C67.6945 4.116 68.3758 4.242 69.0011 4.494C69.6265 4.73667 70.1678 5.082 70.6251 5.53C71.0918 5.978 71.4511 6.50533 71.7031 7.112C71.9645 7.71867 72.0951 8.38133 72.0951 9.1C72.0951 9.81867 71.9645 10.4813 71.7031 11.088C71.4511 11.6947 71.0918 12.222 70.6251 12.67C70.1678 13.118 69.6265 13.468 69.0011 13.72C68.3758 13.9627 67.6945 14.084 66.9571 14.084ZM66.9571 13.16C67.5451 13.16 68.0865 13.062 68.5811 12.866C69.0851 12.6607 69.5191 12.376 69.8831 12.012C70.2565 11.6387 70.5458 11.2093 70.7511 10.724C70.9565 10.2293 71.0591 9.688 71.0591 9.1C71.0591 8.512 70.9565 7.97533 70.7511 7.49C70.5458 6.99533 70.2565 6.566 69.8831 6.202C69.5191 5.82867 69.0851 5.544 68.5811 5.348C68.0865 5.14267 67.5451 5.04 66.9571 5.04C66.3691 5.04 65.8231 5.14267 65.3191 5.348C64.8151 5.544 64.3765 5.82867 64.0031 6.202C63.6391 6.566 63.3498 6.99533 63.1351 7.49C62.9298 7.97533 62.8271 8.512 62.8271 9.1C62.8271 9.67867 62.9298 10.2153 63.1351 10.71C63.3498 11.2047 63.6391 11.6387 64.0031 12.012C64.3765 12.376 64.8151 12.6607 65.3191 12.866C65.8231 13.062 66.3691 13.16 66.9571 13.16ZM73.9833 14V4.2H78.2253C79.1026 4.2 79.8586 4.34467 80.4933 4.634C81.128 4.914 81.618 5.32 81.9633 5.852C82.3086 6.384 82.4813 7.01867 82.4813 7.756C82.4813 8.484 82.3086 9.114 81.9633 9.646C81.618 10.1687 81.128 10.57 80.4933 10.85C79.8586 11.13 79.1026 11.27 78.2253 11.27H75.2433L76.2513 10.276V14H73.9833ZM80.2133 14L77.7633 10.444H80.1853L82.6633 14H80.2133ZM76.2513 10.528L75.2433 9.464H78.0993C78.7993 9.464 79.322 9.31467 79.6673 9.016C80.0126 8.708 80.1853 8.288 80.1853 7.756C80.1853 7.21467 80.0126 6.79467 79.6673 6.496C79.322 6.19733 78.7993 6.048 78.0993 6.048H75.2433L76.2513 4.97V10.528ZM82.9902 14L87.3582 4.2H89.5982L93.9802 14H91.6002L88.0162 5.348H88.9122L85.3142 14H82.9902ZM85.1742 11.9L85.7762 10.178H90.8162L91.4322 11.9H85.1742ZM94.997 14V4.2H96.873L101.045 11.116H100.051L104.153 4.2H106.015L106.043 14H103.915L103.901 7.462H104.293L101.017 12.964H99.995L96.649 7.462H97.125V14H94.997ZM108.368 14V4.2H110.636V14H108.368ZM112.962 14V4.2H117.204C118.081 4.2 118.837 4.34467 119.472 4.634C120.106 4.914 120.596 5.32 120.942 5.852C121.287 6.384 121.46 7.01867 121.46 7.756C121.46 8.484 121.287 9.114 120.942 9.646C120.596 10.1687 120.106 10.57 119.472 10.85C118.837 11.13 118.081 11.27 117.204 11.27H114.222L115.23 10.276V14H112.962ZM119.192 14L116.742 10.444H119.164L121.642 14H119.192ZM115.23 10.528L114.222 9.464H117.078C117.778 9.464 118.3 9.31467 118.646 9.016C118.991 8.708 119.164 8.288 119.164 7.756C119.164 7.21467 118.991 6.79467 118.646 6.496C118.3 6.19733 117.778 6.048 117.078 6.048H114.222L115.23 4.97V10.528ZM125.343 8.148H130.061V9.912H125.343V8.148ZM125.511 12.18H130.845V14H123.257V4.2H130.663V6.02H125.511V12.18ZM132.019 14V12.53L138.081 5.222L138.361 6.048H132.131V4.2H140.377V5.67L134.329 12.978L134.049 12.152H140.587V14H132.019ZM46.8265 26.05C46.3065 26.05 45.8232 25.9633 45.3765 25.79C44.9365 25.61 44.5532 25.36 44.2265 25.04C43.8998 24.72 43.6465 24.3467 43.4665 23.92C43.2865 23.4867 43.1965 23.0133 43.1965 22.5C43.1965 21.9867 43.2865 21.5167 43.4665 21.09C43.6465 20.6567 43.8998 20.28 44.2265 19.96C44.5598 19.64 44.9465 19.3933 45.3865 19.22C45.8265 19.04 46.3065 18.95 46.8265 18.95C47.3198 18.95 47.7798 19.03 48.2065 19.19C48.6398 19.35 49.0098 19.5933 49.3165 19.92L48.9965 20.25C48.6965 19.9567 48.3632 19.7467 47.9965 19.62C47.6365 19.4867 47.2532 19.42 46.8465 19.42C46.3998 19.42 45.9832 19.4967 45.5965 19.65C45.2165 19.8033 44.8832 20.02 44.5965 20.3C44.3165 20.58 44.0965 20.9067 43.9365 21.28C43.7832 21.6533 43.7065 22.06 43.7065 22.5C43.7065 22.94 43.7832 23.3467 43.9365 23.72C44.0965 24.0933 44.3165 24.42 44.5965 24.7C44.8832 24.98 45.2165 25.1967 45.5965 25.35C45.9832 25.5033 46.3998 25.58 46.8465 25.58C47.2532 25.58 47.6365 25.5167 47.9965 25.39C48.3632 25.2567 48.6965 25.04 48.9965 24.74L49.3165 25.07C49.0098 25.3967 48.6398 25.6433 48.2065 25.81C47.7798 25.97 47.3198 26.05 46.8265 26.05ZM53.8482 26.05C53.3282 26.05 52.8449 25.9633 52.3982 25.79C51.9582 25.61 51.5715 25.36 51.2382 25.04C50.9115 24.7133 50.6582 24.3367 50.4782 23.91C50.2982 23.4767 50.2082 23.0067 50.2082 22.5C50.2082 21.9933 50.2982 21.5267 50.4782 21.1C50.6582 20.6667 50.9115 20.29 51.2382 19.97C51.5715 19.6433 51.9582 19.3933 52.3982 19.22C52.8449 19.04 53.3282 18.95 53.8482 18.95C54.3682 18.95 54.8482 19.04 55.2882 19.22C55.7349 19.3933 56.1215 19.64 56.4482 19.96C56.7749 20.28 57.0282 20.6567 57.2082 21.09C57.3949 21.5167 57.4882 21.9867 57.4882 22.5C57.4882 23.0133 57.3949 23.4867 57.2082 23.92C57.0282 24.3467 56.7749 24.72 56.4482 25.04C56.1215 25.36 55.7349 25.61 55.2882 25.79C54.8482 25.9633 54.3682 26.05 53.8482 26.05ZM53.8482 25.58C54.2949 25.58 54.7082 25.5033 55.0882 25.35C55.4682 25.1967 55.7982 24.98 56.0782 24.7C56.3582 24.42 56.5749 24.0933 56.7282 23.72C56.8882 23.3467 56.9682 22.94 56.9682 22.5C56.9682 22.0533 56.8882 21.6467 56.7282 21.28C56.5749 20.9067 56.3582 20.58 56.0782 20.3C55.7982 20.02 55.4682 19.8033 55.0882 19.65C54.7082 19.4967 54.2949 19.42 53.8482 19.42C53.4015 19.42 52.9882 19.4967 52.6082 19.65C52.2282 19.8033 51.8949 20.02 51.6082 20.3C51.3282 20.58 51.1082 20.9067 50.9482 21.28C50.7949 21.6467 50.7182 22.0533 50.7182 22.5C50.7182 22.94 50.7949 23.3467 50.9482 23.72C51.1082 24.0933 51.3282 24.42 51.6082 24.7C51.8949 24.98 52.2282 25.1967 52.6082 25.35C52.9882 25.5033 53.4015 25.58 53.8482 25.58ZM59.2571 26V19H59.6871L64.6771 25.37H64.4471V19H64.9571V26H64.5371L59.5371 19.63H59.7671V26H59.2571ZM68.7416 26V19.46H66.2216V19H71.7716V19.46H69.2516V26H68.7416ZM71.5148 26L74.7348 19H75.2448L78.4648 26H77.9148L74.8748 19.32H75.0948L72.0648 26H71.5148ZM72.6948 24.03L72.8648 23.6H77.0548L77.2248 24.03H72.6948ZM79.7356 26V19H82.5056C83.2456 19 83.8956 19.15 84.4556 19.45C85.0156 19.75 85.449 20.1633 85.7556 20.69C86.069 21.2167 86.2256 21.82 86.2256 22.5C86.2256 23.18 86.069 23.7833 85.7556 24.31C85.449 24.8367 85.0156 25.25 84.4556 25.55C83.8956 25.85 83.2456 26 82.5056 26H79.7356ZM80.2456 25.54H82.4656C83.1256 25.54 83.699 25.41 84.1856 25.15C84.6723 24.89 85.049 24.5333 85.3156 24.08C85.5823 23.62 85.7156 23.0933 85.7156 22.5C85.7156 21.9067 85.5823 21.3833 85.3156 20.93C85.049 20.47 84.6723 20.11 84.1856 19.85C83.699 19.59 83.1256 19.46 82.4656 19.46H80.2456V25.54ZM90.9673 26.05C90.4473 26.05 89.964 25.9633 89.5173 25.79C89.0773 25.61 88.6907 25.36 88.3573 25.04C88.0307 24.7133 87.7773 24.3367 87.5973 23.91C87.4173 23.4767 87.3273 23.0067 87.3273 22.5C87.3273 21.9933 87.4173 21.5267 87.5973 21.1C87.7773 20.6667 88.0307 20.29 88.3573 19.97C88.6907 19.6433 89.0773 19.3933 89.5173 19.22C89.964 19.04 90.4473 18.95 90.9673 18.95C91.4873 18.95 91.9673 19.04 92.4073 19.22C92.854 19.3933 93.2407 19.64 93.5673 19.96C93.894 20.28 94.1473 20.6567 94.3273 21.09C94.514 21.5167 94.6073 21.9867 94.6073 22.5C94.6073 23.0133 94.514 23.4867 94.3273 23.92C94.1473 24.3467 93.894 24.72 93.5673 25.04C93.2407 25.36 92.854 25.61 92.4073 25.79C91.9673 25.9633 91.4873 26.05 90.9673 26.05ZM90.9673 25.58C91.414 25.58 91.8273 25.5033 92.2073 25.35C92.5873 25.1967 92.9173 24.98 93.1973 24.7C93.4773 24.42 93.694 24.0933 93.8473 23.72C94.0073 23.3467 94.0873 22.94 94.0873 22.5C94.0873 22.0533 94.0073 21.6467 93.8473 21.28C93.694 20.9067 93.4773 20.58 93.1973 20.3C92.9173 20.02 92.5873 19.8033 92.2073 19.65C91.8273 19.4967 91.414 19.42 90.9673 19.42C90.5207 19.42 90.1073 19.4967 89.7273 19.65C89.3473 19.8033 89.014 20.02 88.7273 20.3C88.4473 20.58 88.2273 20.9067 88.0673 21.28C87.914 21.6467 87.8373 22.0533 87.8373 22.5C87.8373 22.94 87.914 23.3467 88.0673 23.72C88.2273 24.0933 88.4473 24.42 88.7273 24.7C89.014 24.98 89.3473 25.1967 89.7273 25.35C90.1073 25.5033 90.5207 25.58 90.9673 25.58ZM96.3763 26V19H98.8863C99.4729 19 99.9763 19.0933 100.396 19.28C100.816 19.4667 101.14 19.7367 101.366 20.09C101.593 20.4367 101.706 20.86 101.706 21.36C101.706 21.8467 101.593 22.2667 101.366 22.62C101.14 22.9667 100.816 23.2367 100.396 23.43C99.9763 23.6167 99.4729 23.71 98.8863 23.71H96.6563L96.8863 23.47V26H96.3763ZM101.236 26L99.4163 23.46H99.9963L101.816 26H101.236ZM96.8863 23.5L96.6563 23.26H98.8863C99.6396 23.26 100.21 23.0933 100.596 22.76C100.99 22.4267 101.186 21.96 101.186 21.36C101.186 20.7533 100.99 20.2867 100.596 19.96C100.21 19.6267 99.6396 19.46 98.8863 19.46H96.6563L96.8863 19.21V23.5Z" fill="#292016"/>
            </svg>